#include "hUGEDriver.h"
#include <stddef.h>

#pragma bank 255

static const unsigned char order_cnt = 14;

static const unsigned char P0[] = {
    DN(___,0,0xE00),
    DN(___,0,0x000),
    DN(___,0,0x000),
    DN(___,0,0x000),
    DN(___,0,0x000),
    DN(___,0,0x000),
    DN(___,0,0x000),
    DN(___,0,0x000),
    DN(___,0,0x000),
    DN(___,0,0x000),
    DN(___,0,0x000),
    DN(___,0,0x000),
    DN(___,0,0x000),
    DN(___,0,0x000),
    DN(___,0,0x000),
    DN(___,0,0x000),
    DN(___,0,0x000),
    DN(___,0,0x000),
    DN(___,0,0x000),
    DN(___,0,0x000),
    DN(___,0,0x000),
    DN(___,0,0x000),
    DN(___,0,0x000),
    DN(___,0,0x000),
    DN(___,0,0x000),
    DN(___,0,0x000),
    DN(___,0,0x000),
    DN(___,0,0x000),
    DN(___,0,0x000),
    DN(___,0,0x000),
    DN(___,0,0x000),
    DN(___,0,0x000),
    DN(___,0,0x000),
    DN(___,0,0x000),
    DN(___,0,0x000),
    DN(___,0,0x000),
    DN(___,0,0x000),
    DN(___,0,0x000),
    DN(___,0,0x000),
    DN(___,0,0x000),
    DN(___,0,0x000),
    DN(___,0,0x000),
    DN(___,0,0x000),
    DN(___,0,0x000),
    DN(___,0,0x000),
    DN(___,0,0x000),
    DN(___,0,0x000),
    DN(___,0,0x000),
    DN(___,0,0x000),
    DN(___,0,0x000),
    DN(___,0,0x000),
    DN(___,0,0x000),
    DN(___,0,0x000),
    DN(___,0,0x000),
    DN(___,0,0x000),
    DN(___,0,0x000),
    DN(___,0,0x000),
    DN(___,0,0x000),
    DN(___,0,0x000),
    DN(___,0,0x000),
    DN(___,0,0x000),
    DN(___,0,0x000),
    DN(___,0,0x000),
    DN(___,0,0x000),
};
static const unsigned char P1[] = {
    DN(C_6,2,0x577),
    DN(___,0,0x000),
    DN(___,0,0x000),
    DN(___,0,0x000),
    DN(___,0,0xC05),
    DN(___,0,0x000),
    DN(___,0,0x000),
    DN(___,0,0x000),
    DN(___,0,0x000),
    DN(___,0,0x000),
    DN(___,0,0x000),
    DN(___,0,0x000),
    DN(___,0,0x000),
    DN(___,0,0x000),
    DN(___,0,0x000),
    DN(___,0,0x000),
    DN(C_7,1,0xC06),
    DN(___,0,0x000),
    DN(___,0,0x000),
    DN(___,0,0x000),
    DN(C_7,1,0xC05),
    DN(___,0,0x000),
    DN(___,0,0x000),
    DN(___,0,0x000),
    DN(C_7,1,0xC04),
    DN(___,0,0x000),
    DN(___,0,0x000),
    DN(___,0,0x000),
    DN(C_7,1,0xC02),
    DN(___,0,0x000),
    DN(___,0,0x000),
    DN(___,0,0x000),
    DN(Gs6,1,0xC0A),
    DN(___,0,0x000),
    DN(___,0,0x000),
    DN(___,0,0x000),
    DN(Gs6,1,0xC08),
    DN(___,0,0x000),
    DN(___,0,0x000),
    DN(___,0,0x000),
    DN(Gs6,1,0xC04),
    DN(___,0,0x000),
    DN(___,0,0x000),
    DN(___,0,0x000),
    DN(Gs6,1,0xC02),
    DN(___,0,0x000),
    DN(___,0,0x000),
    DN(___,0,0x000),
    DN(F_6,1,0xC0A),
    DN(___,0,0x000),
    DN(___,0,0x000),
    DN(___,0,0x000),
    DN(F_6,1,0xC08),
    DN(___,0,0x000),
    DN(___,0,0x000),
    DN(___,0,0x000),
    DN(F_6,1,0xC04),
    DN(___,0,0x000),
    DN(___,0,0x000),
    DN(___,0,0x000),
    DN(F_6,1,0xC02),
    DN(___,0,0x000),
    DN(___,0,0x000),
    DN(___,0,0x000),
};
static const unsigned char P2[] = {
    DN(C_7,1,0xC06),
    DN(___,0,0x000),
    DN(___,0,0x000),
    DN(___,0,0x000),
    DN(C_7,1,0xC05),
    DN(___,0,0x000),
    DN(___,0,0x000),
    DN(___,0,0x000),
    DN(C_7,1,0xC04),
    DN(___,0,0x000),
    DN(___,0,0x000),
    DN(___,0,0x000),
    DN(C_7,1,0xC02),
    DN(___,0,0x000),
    DN(___,0,0x000),
    DN(___,0,0x000),
    DN(F_6,1,0xC06),
    DN(___,0,0x000),
    DN(___,0,0x000),
    DN(___,0,0x000),
    DN(F_6,1,0xC05),
    DN(___,0,0x000),
    DN(___,0,0x000),
    DN(___,0,0x000),
    DN(F_6,1,0xC04),
    DN(___,0,0x000),
    DN(___,0,0x000),
    DN(___,0,0x000),
    DN(F_6,1,0xC02),
    DN(___,0,0x000),
    DN(___,0,0x000),
    DN(___,0,0x000),
    DN(Gs6,1,0xC06),
    DN(___,0,0x000),
    DN(___,0,0x000),
    DN(___,0,0x000),
    DN(Gs6,1,0xC05),
    DN(___,0,0x000),
    DN(___,0,0x000),
    DN(___,0,0x000),
    DN(Gs6,1,0xC04),
    DN(___,0,0x000),
    DN(___,0,0x000),
    DN(___,0,0x000),
    DN(Gs6,1,0xC02),
    DN(___,0,0x000),
    DN(___,0,0x000),
    DN(___,0,0x000),
    DN(F_6,1,0xC06),
    DN(___,0,0x000),
    DN(___,0,0x000),
    DN(___,0,0x000),
    DN(F_6,1,0xC05),
    DN(___,0,0x000),
    DN(___,0,0x000),
    DN(___,0,0x000),
    DN(F_6,1,0xC04),
    DN(___,0,0x000),
    DN(___,0,0x000),
    DN(___,0,0x000),
    DN(F_6,1,0xC02),
    DN(___,0,0x000),
    DN(___,0,0x000),
    DN(___,0,0x000),
};
static const unsigned char P3[] = {
    DN(C_3,7,0xC0E),
    DN(___,0,0x000),
    DN(C_4,7,0xC0A),
    DN(___,0,0x000),
    DN(___,0,0xC04),
    DN(___,0,0x000),
    DN(___,0,0xC02),
    DN(___,0,0x000),
    DN(Ds3,7,0xC0E),
    DN(___,0,0x000),
    DN(___,0,0xC0A),
    DN(___,0,0x000),
    DN(___,0,0xC04),
    DN(___,0,0x000),
    DN(___,0,0xC02),
    DN(___,0,0x000),
    DN(Fs3,7,0xC0E),
    DN(___,0,0x000),
    DN(Fs4,7,0xC0A),
    DN(___,0,0x000),
    DN(___,0,0xC04),
    DN(___,0,0x000),
    DN(___,0,0xC02),
    DN(___,0,0x000),
    DN(G_3,7,0xC0E),
    DN(___,0,0x000),
    DN(___,0,0xC0A),
    DN(___,0,0x000),
    DN(___,0,0xC04),
    DN(___,0,0x000),
    DN(___,0,0xC02),
    DN(___,0,0x000),
    DN(C_3,7,0xC0E),
    DN(___,0,0x000),
    DN(C_4,7,0xC0A),
    DN(___,0,0x000),
    DN(___,0,0xC04),
    DN(___,0,0x000),
    DN(___,0,0xC02),
    DN(___,0,0x000),
    DN(Ds3,7,0xC0E),
    DN(___,0,0x000),
    DN(___,0,0xC0A),
    DN(___,0,0x000),
    DN(___,0,0xC04),
    DN(___,0,0x000),
    DN(___,0,0xC02),
    DN(___,0,0x000),
    DN(Fs3,7,0xC0E),
    DN(___,0,0x000),
    DN(Fs4,7,0xC0A),
    DN(___,0,0x000),
    DN(___,0,0xC04),
    DN(___,0,0x000),
    DN(___,0,0xC02),
    DN(___,0,0x000),
    DN(F_3,7,0xC0E),
    DN(___,0,0x000),
    DN(___,0,0xC0A),
    DN(___,0,0x000),
    DN(___,0,0xC04),
    DN(___,0,0x000),
    DN(___,0,0xC02),
    DN(___,0,0x000),
};
static const unsigned char P4[] = {
    DN(C_5,6,0x000),
    DN(___,0,0x000),
    DN(Ds5,6,0x000),
    DN(___,0,0x000),
    DN(D_5,6,0x000),
    DN(___,0,0x000),
    DN(___,0,0x000),
    DN(___,0,0x000),
    DN(C_5,6,0x000),
    DN(___,0,0x000),
    DN(___,0,0x000),
    DN(___,0,0x000),
    DN(___,0,0x000),
    DN(___,0,0x000),
    DN(___,0,0x000),
    DN(___,0,0x000),
    DN(Ds5,6,0x000),
    DN(___,0,0x000),
    DN(C_5,6,0x000),
    DN(___,0,0x000),
    DN(___,0,0x000),
    DN(___,0,0x000),
    DN(___,0,0x000),
    DN(___,0,0x000),
    DN(C_5,6,0x000),
    DN(___,0,0x000),
    DN(Ds5,6,0x000),
    DN(___,0,0x000),
    DN(G_5,6,0x000),
    DN(___,0,0x000),
    DN(___,0,0x000),
    DN(___,0,0x000),
    DN(Ds5,6,0x000),
    DN(___,0,0x000),
    DN(C_5,6,0x000),
    DN(___,0,0x000),
    DN(___,0,0x000),
    DN(___,0,0x000),
    DN(___,0,0x000),
    DN(___,0,0x000),
    DN(C_5,6,0x000),
    DN(___,0,0x000),
    DN(Ds5,6,0x000),
    DN(___,0,0x000),
    DN(___,0,0x000),
    DN(___,0,0x000),
    DN(C_5,2,0x000),
    DN(___,0,0x000),
    DN(C_5,6,0x000),
    DN(___,0,0x000),
    DN(Ds5,2,0x000),
    DN(___,0,0x000),
    DN(Ds5,6,0x000),
    DN(___,0,0x000),
    DN(___,0,0x000),
    DN(___,0,0x000),
    DN(C_5,2,0x000),
    DN(___,0,0x000),
    DN(___,0,0x000),
    DN(___,0,0x000),
    DN(C_5,6,0x000),
    DN(___,0,0x000),
    DN(___,0,0x000),
    DN(___,0,0x000),
};
static const unsigned char P5[] = {
    DN(___,0,0x000),
    DN(C_6,6,0xC0A),
    DN(___,0,0x000),
    DN(Ds6,6,0xC0A),
    DN(___,0,0x000),
    DN(D_6,6,0xC0A),
    DN(___,0,0x000),
    DN(___,0,0x000),
    DN(___,0,0x000),
    DN(C_6,6,0xC0A),
    DN(___,0,0x000),
    DN(___,0,0x000),
    DN(___,0,0x000),
    DN(___,0,0x000),
    DN(___,0,0x000),
    DN(___,0,0x000),
    DN(___,0,0x000),
    DN(Ds6,6,0xC0A),
    DN(___,0,0x000),
    DN(C_6,6,0xC0A),
    DN(___,0,0x000),
    DN(___,0,0x000),
    DN(___,0,0x000),
    DN(___,0,0x000),
    DN(___,0,0x000),
    DN(C_6,6,0xC0A),
    DN(___,0,0x000),
    DN(Ds6,6,0xC0A),
    DN(___,0,0x000),
    DN(G_6,6,0xC0A),
    DN(___,0,0x000),
    DN(___,0,0x000),
    DN(___,0,0x000),
    DN(Ds6,6,0xC0A),
    DN(___,0,0x000),
    DN(C_6,6,0xC0A),
    DN(___,0,0x000),
    DN(___,0,0x000),
    DN(___,0,0x000),
    DN(___,0,0x000),
    DN(___,0,0x000),
    DN(C_6,6,0xC0A),
    DN(___,0,0x000),
    DN(Ds6,6,0xC0A),
    DN(___,0,0x000),
    DN(___,0,0x000),
    DN(___,0,0x000),
    DN(C_6,2,0xC0A),
    DN(___,0,0x000),
    DN(C_6,6,0xC0A),
    DN(___,0,0x000),
    DN(Ds6,2,0xC0A),
    DN(___,0,0x000),
    DN(Ds6,6,0xC0A),
    DN(___,0,0x000),
    DN(___,0,0x000),
    DN(___,0,0x000),
    DN(C_6,2,0xC0A),
    DN(___,0,0x000),
    DN(___,0,0x000),
    DN(___,0,0x000),
    DN(C_6,6,0xC0A),
    DN(___,0,0x000),
    DN(___,0,0x000),
};
static const unsigned char P6[] = {
    DN(Ds6,7,0xC0C),
    DN(___,0,0x000),
    DN(Fs6,7,0x000),
    DN(___,0,0x000),
    DN(Ds6,7,0x000),
    DN(___,0,0x000),
    DN(Fs6,7,0x000),
    DN(___,0,0x000),
    DN(Cs6,7,0x000),
    DN(___,0,0x000),
    DN(F_6,7,0x000),
    DN(___,0,0x000),
    DN(Cs6,7,0x000),
    DN(___,0,0x000),
    DN(F_6,7,0x000),
    DN(___,0,0x000),
    DN(Fs6,7,0x000),
    DN(___,0,0x000),
    DN(A_6,7,0x000),
    DN(___,0,0x000),
    DN(Fs6,7,0x000),
    DN(___,0,0x000),
    DN(A_6,7,0x000),
    DN(___,0,0x000),
    DN(E_6,7,0x000),
    DN(___,0,0x000),
    DN(Gs6,7,0x000),
    DN(___,0,0x000),
    DN(E_6,7,0x000),
    DN(___,0,0x000),
    DN(Gs6,7,0x000),
    DN(___,0,0x000),
    DN(Cs6,7,0x000),
    DN(___,0,0x000),
    DN(E_6,7,0x000),
    DN(___,0,0x000),
    DN(Cs6,7,0x000),
    DN(___,0,0x000),
    DN(E_6,7,0x000),
    DN(___,0,0x000),
    DN(B_5,7,0x000),
    DN(___,0,0x000),
    DN(Ds6,7,0x000),
    DN(___,0,0x000),
    DN(B_5,7,0x000),
    DN(___,0,0x000),
    DN(Ds6,7,0x000),
    DN(___,0,0x000),
    DN(C_5,3,0x000),
    DN(___,0,0x000),
    DN(___,0,0x000),
    DN(___,0,0x000),
    DN(Gs4,3,0x566),
    DN(___,0,0x000),
    DN(___,0,0x000),
    DN(___,0,0x000),
    DN(G_4,3,0x544),
    DN(___,0,0x000),
    DN(___,0,0x000),
    DN(___,0,0x000),
    DN(Fs4,3,0x522),
    DN(___,0,0x000),
    DN(___,0,0x511),
    DN(___,0,0x000),
};
static const unsigned char P7[] = {
    DN(Ds7,7,0xC08),
    DN(___,0,0x000),
    DN(Fs7,7,0x000),
    DN(___,0,0x000),
    DN(Ds7,7,0x000),
    DN(___,0,0x000),
    DN(Fs7,7,0x000),
    DN(___,0,0x000),
    DN(Cs7,7,0x000),
    DN(___,0,0x000),
    DN(F_7,7,0x000),
    DN(___,0,0x000),
    DN(Cs7,7,0x000),
    DN(___,0,0x000),
    DN(F_7,7,0x000),
    DN(___,0,0x000),
    DN(Fs7,7,0x000),
    DN(___,0,0x000),
    DN(A_7,7,0x000),
    DN(___,0,0x000),
    DN(Fs7,7,0x000),
    DN(___,0,0x000),
    DN(A_7,7,0x000),
    DN(___,0,0x000),
    DN(E_7,7,0x000),
    DN(___,0,0x000),
    DN(Gs7,7,0x000),
    DN(___,0,0x000),
    DN(E_7,7,0x000),
    DN(___,0,0x000),
    DN(Gs7,7,0x000),
    DN(___,0,0x000),
    DN(Cs7,7,0x000),
    DN(___,0,0x000),
    DN(E_7,7,0x000),
    DN(___,0,0x000),
    DN(Cs7,7,0x000),
    DN(___,0,0x000),
    DN(E_7,7,0x000),
    DN(___,0,0x000),
    DN(B_6,7,0x000),
    DN(___,0,0x000),
    DN(Ds7,7,0x000),
    DN(___,0,0x000),
    DN(B_6,7,0x000),
    DN(___,0,0x000),
    DN(Ds7,7,0x000),
    DN(___,0,0x000),
    DN(C_6,3,0x000),
    DN(___,0,0x000),
    DN(___,0,0x000),
    DN(___,0,0x000),
    DN(Gs5,3,0x000),
    DN(___,0,0x000),
    DN(___,0,0x000),
    DN(___,0,0x000),
    DN(G_5,3,0x000),
    DN(___,0,0x000),
    DN(___,0,0x000),
    DN(___,0,0x000),
    DN(Fs5,3,0x000),
    DN(___,0,0x000),
    DN(___,0,0x000),
    DN(___,0,0x000),
};

static const unsigned char itNoiseSP2[] = {
    DN(36,0,0x000),
    DN(___,0,0x000),
    DN(___,0,0x000),
    DN(___,0,0x000),
    DN(48,0,0x000),
    DN(51,0,0x000),
    DN(52,0,0x000),
    DN(53,0,0x000),
    DN(50,0,0x000),
    DN(49,0,0x000),
    DN(48,0,0x000),
    DN(38,0,0x000),
    DN(39,0,0x000),
    DN(40,0,0x000),
    DN(41,0,0x000),
    DN(41,0,0x000),
    DN(42,0,0x000),
    DN(40,0,0x000),
    DN(43,0,0x000),
    DN(42,0,0x000),
    DN(41,0,0x000),
    DN(43,0,0x000),
    DN(44,0,0x000),
    DN(___,0,0x000),
    DN(___,0,0x000),
    DN(___,0,0x000),
    DN(___,0,0x000),
    DN(___,0,0x000),
    DN(___,0,0x000),
    DN(___,0,0x000),
    DN(___,0,0x000),
    DN(___,1,0x000),
};
static const unsigned char* const order1[] = {P0,P0,P0,P5,P5,P5,P7};
static const unsigned char* const order2[] = {P0,P0,P0,P4,P4,P4,P6};
static const unsigned char* const order3[] = {P0,P0,P3,P3,P3,P3,P3};
static const unsigned char* const order4[] = {P1,P2,P2,P2,P2,P2,P2};

static const hUGEDutyInstr_t duty_instruments[] = {
    {8,0,240,0,128},
    {8,64,240,0,128},
    {8,128,240,0,128},
    {8,192,240,0,128},
    {8,0,241,0,128},
    {8,64,241,0,128},
    {8,128,241,0,128},
    {8,192,241,0,128},
    {8,128,240,0,128},
    {8,128,240,0,128},
    {8,128,240,0,128},
    {8,128,240,0,128},
    {8,128,240,0,128},
    {8,128,240,0,128},
    {8,128,240,0,128},
};
static const hUGEWaveInstr_t wave_instruments[] = {
    {0,32,0,0,128},
    {0,32,1,0,128},
    {0,32,2,0,128},
    {0,32,3,0,128},
    {0,32,4,0,128},
    {0,32,5,0,128},
    {0,32,6,0,128},
    {0,32,7,0,128},
    {0,32,8,0,128},
    {0,32,9,0,128},
    {0,32,10,0,128},
    {0,32,11,0,128},
    {0,32,12,0,128},
    {0,32,13,0,128},
    {0,32,14,0,128},
};
static const hUGENoiseInstr_t noise_instruments[] = {
    {194,0,0,0,0},
    {14,itNoiseSP2,0,0,0},
    {240,0,0,0,0},
    {240,0,0,0,0},
    {240,0,0,0,0},
    {240,0,0,0,0},
    {240,0,0,0,0},
    {240,0,0,0,0},
    {240,0,0,0,0},
    {240,0,0,0,0},
    {240,0,0,0,0},
    {240,0,0,0,0},
    {240,0,0,0,0},
    {240,0,0,0,0},
    {240,0,0,0,0},
};

static const unsigned char waves[] = {
    0,0,255,255,255,255,255,255,255,255,255,255,255,255,255,255,
    0,0,0,0,255,255,255,255,255,255,255,255,255,255,255,255,
    0,0,0,0,0,0,0,0,255,255,255,255,255,255,255,255,
    0,0,0,0,0,0,0,0,0,0,0,0,255,255,255,255,
    0,1,18,35,52,69,86,103,120,137,154,171,188,205,222,239,
    254,220,186,152,118,84,50,16,18,52,86,120,154,188,222,255,
    122,205,219,117,33,19,104,189,220,151,65,1,71,156,221,184,
    15,15,15,15,15,15,15,15,15,15,15,15,15,15,15,15,
    254,252,250,248,246,244,242,240,242,244,246,248,250,252,254,255,
    254,221,204,187,170,153,136,119,138,189,241,36,87,138,189,238,
    132,17,97,237,87,71,90,173,206,163,23,121,221,32,3,71,
    181,18,154,14,27,108,1,98,66,62,151,81,236,39,212,160,
    144,233,30,50,18,164,166,140,131,160,109,76,113,49,125,16,
    96,42,53,114,139,44,227,18,81,209,185,30,6,160,201,234,
    29,93,45,196,67,39,134,113,112,112,162,213,216,128,48,112,
    67,10,211,238,188,114,50,110,142,98,157,184,36,4,4,192,
};

BANKREF(mus_title)
const hUGESong_t mus_title = {7, &order_cnt, order1, order2, order3,order4, duty_instruments, wave_instruments, noise_instruments, NULL, waves};
